<?xml version="1.0" encoding="UTF-8"?>
<svg id="Layer_1" data-name="Layer 1" xmlns="http://www.w3.org/2000/svg" viewBox="0 0 1435 400">
  <defs>
    <style>
      .cls-1 {
        fill: none;
      }

      .cls-2 {
        fill: #0060f4;
      }

      .cls-3 {
        fill: #fff;
      }
    </style>
  </defs>
  <g>
    <path class="cls-2" d="M84.8,217.05c-40.8,0-66.91-16.59-68.27-47.87,0-1.36,1.09-2.45,2.45-2.45H53.79c1.36,0,2.45,1.09,2.45,2.45,1.09,15.78,11.42,22.58,30.46,22.58,16.05,0,24.75-6.26,24.75-17.13,0-26.66-91.67-.82-91.67-59.57,0-29.11,23.39-44.61,61.2-44.61s61.47,14.69,63.92,44.06c.27,1.36-.82,2.45-2.18,2.45h-33.18c-1.36,0-2.45-1.09-2.72-2.45-2.18-11.97-9.79-19.31-26.38-19.31-13.33,0-21.76,4.9-21.76,16.87,0,26.66,91.67-.54,91.67,59.02,0,29.38-27.74,45.97-65.55,45.97Z"/>
    <path class="cls-2" d="M239.57,208.62c0,1.36-1.09,2.72-2.18,3.26-7.89,2.72-16.87,4.62-25.57,4.62-23.66,0-46.24-11.97-46.24-43.79l.27-70.18h-15.78c-1.36,0-2.45-1.09-2.45-2.45v-23.94c0-1.36,1.09-2.45,2.45-2.45h15.78l-.27-32.64c0-1.36,1.09-2.45,2.45-2.45h36.18c1.36,0,2.45,1.09,2.45,2.45l-.27,32.64h31.01c1.36,0,2.45,1.09,2.45,2.45v23.94c0,1.36-1.09,2.45-2.45,2.45h-31.28l.27,69.09c0,11.97,5.98,15.78,14.96,15.78,6.53,0,11.7-1.09,15.78-2.45,1.36-.27,2.45,.82,2.45,1.9v21.76Z"/>
    <path class="cls-3" d="M661.17,223.79c-6.86,0-12.45-5.58-12.45-12.45l.82-48.04v-37.91c0-15.03-5.57-15.03-7.96-15.03-4.34,0-14.75,9.65-14.75,33.52v19.58l.81,47.7c0,7.03-5.58,12.62-12.45,12.62h-36.72c-6.87,0-12.45-5.58-12.45-12.45l.82-48.04v-37.91c0-15.03-5.37-15.03-7.96-15.03-4.34,0-14.75,9.65-14.75,33.52v19.58l.81,47.7c0,7.03-5.58,12.62-12.45,12.62h-37.27c-6.86,0-12.45-5.58-12.45-12.45l.82-47.94-.27-87.21c0-6.9,5.58-12.48,12.45-12.48h34.82c4.28,0,8.05,2.17,10.3,5.46,9.06-5.85,19.53-8.73,31.59-8.73,17.81,0,31.7,6.04,40.97,17.65,10.77-12.1,24.13-17.65,41.72-17.65,20.39,0,54.61,8.37,54.61,64.4v38.62l.54,47.76c0,6.98-5.58,12.56-12.45,12.56h-36.72Z"/>
    <path class="cls-2" d="M777.58,217.33c-44.88,0-71.54-28.56-71.54-73.17s26.66-73.98,72.35-73.98c35.9,0,59.3,20.4,62.56,50.86,.27,1.36-.82,2.45-2.18,2.45h-32.91c-1.36,0-2.45-1.09-2.72-2.45-3.26-15.78-13.05-23.39-24.75-23.39-20.67,.27-30.46,15.23-30.46,46.24s10.06,45.97,30.46,46.24c13.87,.27,24.21-9.52,25.84-27.74,.27-1.36,1.36-2.45,2.72-2.45h33.73c1.36,0,2.45,1.09,2.18,2.45-2.99,31.82-28.56,54.94-65.28,54.94Z"/>
    <path class="cls-2" d="M950.02,213.79c-1.36,0-2.45-1.09-2.45-2.45l.54-13.87c-9.79,11.97-23.67,19.04-41.35,19.04-39.71,0-60.66-31.55-60.66-72.35s23.39-73.17,61.47-73.17c17.41,0,31.01,6.26,40.53,17.68l-.82-12.51c0-1.36,1.09-2.45,2.45-2.45h36.45c1.36,0,2.45,1.09,2.45,2.45l-.82,67.73,.82,67.46c0,1.36-1.09,2.45-2.45,2.45h-36.18Zm-31.82-24.48c19.86,0,30.46-14.96,30.74-44.61,.27-29.92-10.34-46.24-29.92-46.51-20.67-.54-31.28,14.96-31.28,43.79,0,31.55,10.88,47.6,30.46,47.33Z"/>
    <path class="cls-2" d="M1063.71,217.05c-40.8,0-66.91-16.59-68.27-47.87,0-1.36,1.09-2.45,2.45-2.45h34.82c1.36,0,2.45,1.09,2.45,2.45,1.09,15.78,11.43,22.58,30.46,22.58,16.05,0,24.75-6.26,24.75-17.13,0-26.66-91.66-.82-91.66-59.57,0-29.11,23.39-44.61,61.2-44.61s61.47,14.69,63.92,44.06c.27,1.36-.82,2.45-2.18,2.45h-33.18c-1.36,0-2.45-1.09-2.72-2.45-2.18-11.97-9.79-19.31-26.38-19.31-13.33,0-21.76,4.9-21.76,16.87,0,26.66,91.66-.54,91.66,59.02,0,29.38-27.74,45.97-65.55,45.97Z"/>
    <path class="cls-2" d="M1218.49,208.62c0,1.36-1.09,2.72-2.18,3.26-7.89,2.72-16.87,4.62-25.57,4.62-23.66,0-46.24-11.97-46.24-43.79l.27-70.18h-15.78c-1.36,0-2.45-1.09-2.45-2.45v-23.94c0-1.36,1.09-2.45,2.45-2.45h15.78l-.27-32.64c0-1.36,1.09-2.45,2.45-2.45h36.18c1.36,0,2.45,1.09,2.45,2.45l-.27,32.64h31.01c1.36,0,2.45,1.09,2.45,2.45v23.94c0,1.36-1.09,2.45-2.45,2.45h-31.28l.27,69.09c0,11.97,5.98,15.78,14.96,15.78,6.53,0,11.7-1.09,15.78-2.45,1.36-.27,2.45,.82,2.45,1.9v21.76Z"/>
    <path class="cls-2" d="M1228.55,213.79c-1.36,0-2.45-1.09-2.45-2.45l1.09-92.75-1.09-92.75c0-1.36,1.09-2.45,2.45-2.45h35.63c1.36,0,2.45,1.09,2.45,2.45l-1.09,92.75,1.09,92.75c0,1.36-1.09,2.45-2.45,2.45h-35.63Z"/>
    <path class="cls-2" d="M1412.14,166.46c1.36,0,2.45,1.09,2.18,2.45-3.54,25.57-28.02,48.42-67.19,48.42-46.78,0-72.08-30.74-72.08-73.17,0-44.61,26.66-73.98,71.27-73.98s71.54,30.46,72.35,79.42c0,1.36-1.09,2.45-2.45,2.45h-100.1c1.63,26.38,11.97,38.08,31.55,38.08,13.6,0,23.39-6.26,27.2-21.22,.27-1.36,1.63-2.45,2.99-2.45h34.27Zm-65.55-69.36c-16.32,0-26.11,9.79-29.38,29.1h57.39c-1.63-14.96-10.06-29.1-28.02-29.1Z"/>
    <path class="cls-3" d="M171.57,383.21c-47.44,0-76.7-21.47-78.26-57.44,0-.14,0-.29,0-.43,0-6.86,5.58-12.45,12.45-12.45h14.29c-13.42-7.51-23.48-19.94-23.48-41.68,0-34.2,26.62-54.61,71.2-54.61s70.91,19.76,73.85,52.87c.44,3.29-.49,6.6-2.6,9.18-2.33,2.84-5.79,4.46-9.51,4.46h-10.17c15.53,7.12,27.79,19.81,27.79,44.13,0,34-29.66,55.97-75.55,55.97Zm-18.57-58.35c.37,5.28,1.17,13.05,20.47,13.05,9.7,0,14.66-2.36,14.75-7.01-2.68-2.64-16.02-4.64-24.07-5.85-3.57-.54-7.39-1.11-11.32-1.8,.09,.52,.14,1.06,.16,1.6Zm2.46-56.82c2.76,2.53,15.34,4.26,23.74,5.42,1.62,.22,3.29,.46,5,.7-.16-.5-.3-1.01-.4-1.54-1.05-5.79-3.17-11.27-16.58-11.27-11.53,0-11.76,3.66-11.76,6.69Z"/>
    <path class="cls-3" d="M313.29,383.48c-52.55,0-82.08-51.29-82.08-83.17,0-51.02,32.22-83.98,82.08-83.98s81.54,31.87,81.54,83.17-31.24,83.98-81.54,83.98Zm-.21-119.95c-6.62,.09-20.26,.39-20.26,37.06s13.31,35.7,20.46,35.7,19.65,0,19.65-35.97-13.86-36.79-19.86-36.79Z"/>
    <path class="cls-2" d="M171.57,373.21c-40.8,0-66.91-16.59-68.27-47.87,0-1.36,1.09-2.45,2.45-2.45h34.82c1.36,0,2.45,1.09,2.45,2.45,1.09,15.78,11.43,22.58,30.46,22.58,16.05,0,24.75-6.26,24.75-17.13,0-26.66-91.66-.82-91.66-59.57,0-29.11,23.39-44.61,61.2-44.61s61.47,14.69,63.92,44.06c.27,1.36-.82,2.45-2.18,2.45h-33.18c-1.36,0-2.45-1.09-2.72-2.45-2.18-11.97-9.79-19.31-26.38-19.31-13.33,0-21.76,4.9-21.76,16.87,0,26.66,91.66-.54,91.66,59.02,0,29.38-27.74,45.97-65.55,45.97Z"/>
    <g>
      <path class="cls-2" d="M480.56,103.36c1.63,0,3.54,0,5.17,.27,1.36,0,2.45-.81,2.45-2.18v-25.29c0-1.36-1.09-2.72-2.45-2.99-1.9-.27-4.08-.54-6.26-.54-17.4,0-33.61,5.93-44.75,17.97-1.78,1.92-4.98,.61-4.85-2.01l.64-12.42c0-1.36-1.09-2.45-2.45-2.45h-35.9c-1.36,0-2.45,1.09-2.45,2.45l1.09,67.46-1.09,67.73c0,1.36,1.09,2.45,2.45,2.45h.11c1.39,0,2.57-1.03,2.76-2.41,2.8-20.34,15-35.05,33.6-41.27,1.13-.38,1.89-1.44,1.89-2.63v-15.98c-.27-32.1,21.21-48.14,50.05-48.14Z"/>
      <path class="cls-3" d="M394.74,213.79c-.2,1.98-.31,4-.33,6.07h-8.77c-6.87,0-12.45,5.58-12.45,12.45v23.94c0,6.86,5.58,12.45,12.45,12.45h8.77v39.32s-1.09,59.48-1.09,59.48c0,6.86,5.58,12.45,12.45,12.45h37.54c6.87,0,12.45-5.58,12.45-12.45,0-.08-1.36-59.41-1.36-59.41v-39.39h21.01c6.87,0,12.45-5.58,12.45-12.45v-23.94c0-6.87-5.58-12.45-12.45-12.45h-20.73c.64-3.94,2.34-3.94,4.95-3.94,5.54,0,9.98,.44,13.2,1.29,.2,.05,.4,.1,.61,.14,.79,.16,1.59,.24,2.39,.24,6.63,0,12.03-5.36,12.03-11.95v-23.67c0-6.63-5-12.1-11.35-12.67-10.47-1.66-19.35-2.5-26.39-2.5s-13.64,.94-19.59,2.7c-20.41,6.06-33.56,21.99-35.77,44.27Z"/>
    </g>
    <g>
      <path class="cls-2" d="M496.01,184.77h36.18c1.27,0,2.3-1.04,2.28-2.32l-.32-18.99v-19.58c0-28.56,13.33-43.52,24.75-43.52s17.95,8.16,17.95,25.03v38.08l-.82,47.87c0,1.36,1.09,2.45,2.45,2.45h36.72c1.36,0,2.45-1.09,2.45-2.45l-.82-47.87v-19.58c0-28.56,13.6-43.52,24.75-43.52s17.95,8.16,17.95,25.03v38.08l-.82,47.87c0,1.36,1.09,2.45,2.45,2.45h36.72c1.36,0,2.45-1.09,2.45-2.45l-.54-47.87v-38.62c0-37.26-16.32-54.4-44.61-54.4-15.58,0-29,4.56-40.49,22.68-.93,1.47-3.12,1.31-3.85-.27-7.06-15.23-20.27-22.41-38.35-22.41-15.49,0-26.92,5.46-36.06,15.69-1.38,1.55-3.94,.48-3.83-1.59l.45-8.39c0-1.36-1.09-2.45-2.45-2.45h-34.82c-1.36,0-2.45,1.09-2.45,2.45l.27,87.31-.33,19.1c-.02,1.25,1,2.25,2.25,2.2"/>
      <path class="cls-3" d="M496.01,184.77c-.05,0-.11,0-.16,0-.89,.01-1.76,.12-2.6,.31-5.54,1.26-9.68,6.23-9.68,12.21l.19,22.56h-5.69c-6.03,0-11.06,4.3-12.2,10h9.54c1.36,0,2.45,1.09,2.45,2.45v23.94c0,1.36-1.09,2.45-2.45,2.45h-9.54c1.14,5.7,6.18,10,12.2,10h5.74l-.23,60.18c0,32.68,22.08,53.79,56.24,53.79,11.44,0,21.99-2.81,28.83-5.17,.41-.14,.81-.31,1.2-.51,4.61-2.3,7.71-7.21,7.71-12.21v-21.76c0-6.59-5.39-11.95-12.03-11.95-.79,0-1.6,.08-2.38,.24-.41,.08-.81,.19-1.2,.32-3.91,1.3-8.03,1.93-12.62,1.93-4.96,0-4.96-.99-4.96-5.81l-.23-59.05h21.24c6.87,0,12.45-5.58,12.45-12.45v-23.94c0-6.87-5.58-12.45-12.45-12.45h-20.92l.19-22.64c0-6.07-4.37-11.13-10.13-12.22-.75-.14-1.53-.22-2.32-.23h-36.18Z"/>
    </g>
    <path class="cls-2" d="M567.55,364.77c0,1.36-1.09,2.72-2.18,3.26-7.89,2.72-16.86,4.62-25.57,4.62-23.66,0-46.24-11.97-46.24-43.79l.27-70.18h-15.78c-1.36,0-2.45-1.09-2.45-2.45v-23.94c0-1.36,1.09-2.45,2.45-2.45h15.78l-.27-32.64c0-1.36,1.09-2.45,2.45-2.45h36.18c1.36,0,2.45,1.09,2.45,2.45l-.27,32.64h31.01c1.36,0,2.45,1.09,2.45,2.45v23.94c0,1.36-1.09,2.45-2.45,2.45h-31.28l.27,69.09c0,11.97,5.98,15.78,14.96,15.78,6.53,0,11.7-1.09,15.78-2.45,1.36-.27,2.45,.82,2.45,1.9v21.76Z"/>
    <path class="cls-3" d="M828.45,382.66c-42.92,0-70.66-32.33-70.66-82.35s30.06-83.17,71.47-83.17c12.02,0,22.85,2.67,32.1,7.85,2.27-3.11,5.93-5.13,10.06-5.13h36.45c6.87,0,12.45,5.58,12.45,12.45l-.82,67.73,.82,67.34c0,6.98-5.58,12.57-12.45,12.57h-36.18c-4.43,0-8.33-2.32-10.53-5.82-9.53,5.63-20.57,8.54-32.72,8.54Zm11.2-118.34c-5.01,0-20.24,0-20.24,33.81,0,24.77,6.72,37.33,19.98,37.33h.35c5.72,0,20.56,0,20.88-34.7,.22-23.98-6.53-36.23-20.06-36.42-.38,0-.65-.01-.9-.01Z"/>
    <path class="cls-2" d="M697.07,369.94c-1.36,0-2.72-1.09-2.99-2.45l-22.03-102.82-19.04,102.82c-.27,1.36-1.63,2.45-2.99,2.45h-42.98c-1.36,0-2.72-1.09-2.99-2.45l-29.92-135.19c-.27-1.36,.82-2.45,1.9-2.45h36.18c1.36,0,2.72,1.09,2.72,2.45l15.78,103.09,19.31-103.09c.27-1.36,1.63-2.45,2.99-2.45h44.34c1.36,0,2.72,1.09,2.99,2.45l18.5,101.18,16.59-101.18c0-1.36,1.36-2.45,2.72-2.45h32.91c1.36,0,2.18,1.09,1.9,2.45l-29.65,135.19c-.27,1.36-1.63,2.45-2.99,2.45h-43.25Z"/>
    <path class="cls-2" d="M871.7,369.94c-1.36,0-2.45-1.09-2.45-2.45l.54-13.87c-9.79,11.97-23.66,19.04-41.34,19.04-39.71,0-60.66-31.55-60.66-72.35s23.39-73.17,61.47-73.17c17.41,0,31.01,6.26,40.53,17.68l-.82-12.51c0-1.36,1.09-2.45,2.45-2.45h36.45c1.36,0,2.45,1.09,2.45,2.45l-.82,67.73,.82,67.46c0,1.36-1.09,2.45-2.45,2.45h-36.18Zm-31.82-24.48c19.86,0,30.46-14.96,30.74-44.61,.27-29.92-10.34-46.24-29.92-46.51-20.67-.54-31.28,14.96-31.28,43.79,0,31.55,10.88,47.6,30.46,47.33Z"/>
    <path class="cls-3" d="M922.83,379.94c-6.86,0-12.45-5.58-12.45-12.45l1.09-67.73-1.08-67.29c0-7.03,5.58-12.61,12.45-12.61h35.9c5.87,0,10.8,4.08,12.11,9.55,11.07-6.9,24.55-10.64,39.3-10.64,2.8,0,5.45,.33,7.68,.65,.18,.03,.36,.06,.54,.09,5.98,1.2,10.49,6.7,10.49,12.8v25.29c0,6.83-5.47,12.18-12.45,12.18-.55,0-1.1-.04-1.64-.13-.82-.14-2.32-.14-3.53-.14-13.04,0-23.59,3.69-30.52,10.67-6.43,6.48-9.63,15.69-9.53,27.38v59.93c0,6.86-5.58,12.45-12.45,12.45h-35.9Z"/>
    <path class="cls-3" d="M1085.76,383.48c-49.86,0-82.08-32.64-82.08-83.17s31.9-83.98,81.27-83.98,81.42,33.37,82.35,89.26c0,5.07-2.9,9.38-7.09,11.4,.03,.03,.06,.07,.08,.1,2.19,2.68,3.1,6.13,2.54,9.54-3.89,27.42-29.63,56.85-77.06,56.85Zm-19.68-65.28c3.47,16.5,12.12,18.08,20.22,18.08,9.91,0,14.99-3.93,17.47-13.54,.38-1.65,1.1-3.19,2.06-4.54h-39.76Zm34.11-45.84c-2.56-4.96-7.07-9.1-14.98-9.1-5.77,0-11.85,1.31-15.92,9.1h30.9Z"/>
    <path class="cls-2" d="M922.83,369.94c-1.36,0-2.45-1.09-2.45-2.45l1.09-67.73-1.09-67.46c0-1.36,1.09-2.45,2.45-2.45h35.9c1.36,0,2.45,1.09,2.45,2.45l-1.09,21.21c10.88-16.59,29.65-24.75,50.05-24.75,2.18,0,4.35,.27,6.26,.54,1.36,.27,2.45,1.63,2.45,2.99v25.29c0,1.36-1.09,2.18-2.45,2.18-1.63-.27-3.54-.27-5.17-.27-28.83,0-50.32,16.05-50.05,48.14v59.84c0,1.36-1.09,2.45-2.45,2.45h-35.9Z"/>
    <path class="cls-2" d="M1150.76,322.61c1.36,0,2.45,1.09,2.18,2.45-3.54,25.57-28.02,48.42-67.18,48.42-46.79,0-72.08-30.74-72.08-73.17,0-44.61,26.66-73.98,71.27-73.98s71.54,30.46,72.35,79.42c0,1.36-1.09,2.45-2.45,2.45h-100.1c1.63,26.38,11.97,38.08,31.55,38.08,13.6,0,23.39-6.26,27.2-21.22,.27-1.36,1.63-2.45,2.99-2.45h34.27Zm-65.55-69.36c-16.32,0-26.11,9.79-29.38,29.1h57.39c-1.63-14.96-10.06-29.1-28.02-29.1Z"/>
  </g>
  <g>
    <path class="cls-1" d="M342.93,300.31c0-2.6-.09-5.06-.23-7.44l-44.42,49.79c4.16,2.41,9.14,3.62,14.99,3.62,20.13,0,29.65-13.87,29.65-45.97Z"/>
    <path class="cls-2" d="M342.93,300.31c0,32.1-9.52,45.97-29.65,45.97-5.13,0-9.58-.93-13.4-2.77-.99-.48-2.19-.19-2.92,.64l-17.25,19.33c-1.15,1.29-.68,3.32,.92,3.98,9.38,3.92,20.31,6.02,32.65,6.02,45.7,0,71.54-29.38,71.54-73.98,0-15.01-2.94-28.2-8.56-39.1-.81-1.56-2.93-1.85-4.1-.53l-28.77,32.25c-.44,.49-.66,1.12-.63,1.78,.1,2.06,.17,4.19,.17,6.42Z"/>
    <path class="cls-2" d="M269.8,240.8c-1.16-.68-2.61-.55-3.67,.29-16.17,12.88-24.93,33.52-24.93,59.22,0,13.31,2.36,25.17,6.87,35.29,1.1,2.46,4.58,2.5,5.8,.1l39.53-77.64c.78-1.52,.23-3.39-1.25-4.25l-22.35-13.01Z"/>
    <g>
      <path class="cls-1" d="M280.37,144.43c0,5.38,.32,10.21,.9,14.59l46.36-56.17c-4.5-3.63-10.16-5.47-17.07-5.47-20.67,.27-30.19,15.5-30.19,47.06Z"/>
      <path class="cls-2" d="M280.37,144.43c0-31.55,9.52-46.78,30.19-47.06,6.03,0,11.11,1.4,15.3,4.18,1.05,.7,2.46,.47,3.26-.5l16.76-20.3c1.06-1.28,.58-3.2-.93-3.88-9.66-4.36-21.08-6.68-34.11-6.68-45.7,0-72.08,29.38-72.08,73.98,0,18.26,4.42,33.82,12.78,45.85,.95,1.37,2.94,1.48,4,.2l25.05-30.36c.43-.53,.63-1.19,.55-1.87-.5-4.1-.77-8.59-.77-13.54Z"/>
      <path class="cls-2" d="M342.04,210.72c.68,.35,1.49,.38,2.18,.07,24.67-11.01,38.15-35.25,38.15-67.45,0-13.24-2.28-25.06-6.67-35.14-.83-1.91-3.53-1.99-4.5-.14l-47.46,90.44c-.64,1.23-.17,2.74,1.06,3.37,3.31,1.7,9.91,5.08,17.25,8.85Z"/>
      <path class="cls-3" d="M386.83,61.79c-2.81-4.28-7.55-6.84-12.66-6.84-4.46,0-8.66,2-11.54,5.49l-14.73,17.84-20.27,24.56-46.36,56.17-27.77,33.65-9.25,11.21c-3.16,3.82-4.42,8.8-3.44,13.67,.96,4.78,3.95,8.83,8.21,11.16l18.9,11,26.85,15.63-43.8,86.02-13.77,27.05c-.4,.7-.73,1.43-.99,2.2-1.5,4.47-.79,9.21,1.93,13,2.73,3.79,7.15,6.05,11.83,6.05s8.6-2.06,11.33-5.56l16.13-18.08,20.84-23.36,44.42-49.79,31.8-35.65,4.61-5.17c.41-.46,.78-.94,1.11-1.45,2.48-3.82,3.26-8.54,2.14-12.95-1.12-4.41-4.05-8.19-8.05-10.37-.05-.03-16.78-8.61-31.21-16.01-10.94-5.61-20.55-10.54-20.55-10.54l50.95-97.08,13.8-26.3c.26-.44,.5-.9,.7-1.38,2.02-4.67,1.58-9.97-1.19-14.18Z"/>
      <path class="cls-3" d="M249.99,384.66c-3.07,0-5.98-1.49-7.77-3.98-1.77-2.46-2.23-5.56-1.25-8.49,.15-.44,.34-.87,.58-1.28,.04-.08,.08-.15,.12-.23l57.57-113.07c1.2-2.36,.35-5.26-1.94-6.59,0,0-45.84-26.68-45.88-26.71-2.96-1.62-5.04-4.44-5.71-7.75-.68-3.38,.19-6.84,2.39-9.5L366.48,63.62c1.92-2.33,4.73-3.67,7.68-3.67,3.42,0,6.59,1.71,8.48,4.59,1.84,2.79,2.13,6.32,.78,9.45-.12,.27-.26,.55-.41,.8-.04,.08-.09,.15-.13,.23l-64.75,123.38c-.62,1.18-.74,2.56-.34,3.83,.4,1.27,1.3,2.33,2.48,2.94,0,0,51.01,26.17,51.69,26.52,2.79,1.56,4.79,4.15,5.55,7.18,.78,3.07,.24,6.34-1.49,9-.19,.3-.41,.58-.65,.85l-117.8,132.05c-.07,.08-.14,.17-.21,.26-1.8,2.31-4.49,3.64-7.39,3.64Z"/>
      <path class="cls-2" d="M249.99,377.66c-.81,0-1.61-.41-2.09-1.07-.47-.65-.56-1.36-.29-2.18,.1-.18,.21-.37,.3-.56l57.57-113.07c2.89-5.67,.84-12.61-4.66-15.82l-45.76-26.64c-.1-.06-.19-.11-.29-.16-1.16-.63-1.94-1.69-2.2-2.99-.27-1.32,.06-2.62,.92-3.66l118.39-143.45c.6-.72,1.41-1.12,2.29-1.12,1.07,0,2.03,.52,2.63,1.43,.55,.83,.62,1.86,.2,2.82-.11,.18-.22,.37-.31,.56l-64.75,123.38c-1.49,2.83-1.78,6.15-.81,9.2s3.11,5.59,5.96,7.05c0,0,50.42,25.87,51.58,26.46,1.02,.58,1.79,1.6,2.08,2.73,.29,1.16,.08,2.46-.57,3.46l-117.8,132.05c-.18,.2-.35,.4-.51,.61-.47,.61-1.13,.94-1.87,.94Z"/>
    </g>
  </g>
  <path class="cls-2" d="M475.4,179.27c-6.8-1.09-16.86-2.45-25.29-2.45-23.39,0-45.7,11.97-45.7,43.79v9.25h-18.77c-1.36,0-2.45,1.09-2.45,2.45v23.94c0,1.36,1.09,2.45,2.45,2.45h18.77v49.51l-1.09,59.3c0,1.36,1.09,2.45,2.45,2.45h37.54c1.36,0,2.45-1.09,2.45-2.45l-1.36-59.3v-49.51h19.06c1.32-.02,2.37-1.06,2.4-2.38v-24.06c-.03-1.33-1.1-2.39-2.43-2.39h-19.03v-5.45c0-14.14,6.26-18.5,15.23-18.5,6.53,0,11.7,.54,15.78,1.63,1.36,.27,2.45-.81,2.45-1.9v-23.67c0-1.36-1.09-2.72-2.45-2.72Z"/>
</svg>
